<?xml version="1.0" encoding="UTF-8" standalone="no"?>
<!DOCTYPE svg PUBLIC "-//W3C//DTD SVG 1.1//EN"
 "http://www.w3.org/Graphics/SVG/1.1/DTD/svg11.dtd">
<!-- Generated by graphviz version 2.30.1 (20150306.0020)
 -->
<!-- Title: G Pages: 1 -->
<svg width="272pt" height="676pt"
 viewBox="0.00 0.00 272.00 676.00" xmlns="http://www.w3.org/2000/svg" xmlns:xlink="http://www.w3.org/1999/xlink">
<g id="graph0" class="graph" transform="scale(1 1) rotate(0) translate(4 672)">
<title>G</title>
<polygon fill="white" stroke="white" points="-4,5 -4,-672 269,-672 269,5 -4,5"/>
<g id="clust1" class="cluster"><title>cluster_how_to_use_tag</title>
<polygon fill="lightgrey" stroke="lightgrey" points="8,-56 8,-624 256,-624 256,-56 8,-56"/>
<text text-anchor="middle" x="132" y="-608.8" font-family="Times,serif" font-size="14.00">如何打标签</text>
</g>
<g id="clust2" class="cluster"><title>cluster_user_tag</title>
<polygon fill="grey" stroke="grey" points="16,-518 16,-593 248,-593 248,-518 16,-518"/>
<text text-anchor="middle" x="132" y="-577.8" font-family="Times,serif" font-size="14.00">用户标签</text>
</g>
<g id="clust3" class="cluster"><title>cluster_m2m_tag</title>
<polygon fill="grey" stroke="grey" points="16,-363 16,-510 248,-510 248,-363 16,-363"/>
<text text-anchor="middle" x="132" y="-494.8" font-family="Times,serif" font-size="14.00">米汤标签</text>
</g>
<g id="clust4" class="cluster"><title>cluster_cms_user_tag</title>
<polygon fill="grey" stroke="grey" points="16,-64 16,-355 248,-355 248,-64 16,-64"/>
<text text-anchor="middle" x="132" y="-339.8" font-family="Times,serif" font-size="14.00">给用户打标签</text>
</g>
<!-- king_tag -->
<g id="node1" class="node"><title>king_tag</title>
<ellipse fill="white" stroke="black" cx="132" cy="-544" rx="108" ry="18"/>
<text text-anchor="middle" x="132" y="-540.3" font-family="Times,serif" font-size="14.00">国王自己打的标签</text>
</g>
<!-- user_action_tag -->
<g id="node2" class="node"><title>user_action_tag</title>
<ellipse fill="firebrick" stroke="black" cx="132" cy="-461" rx="108" ry="18"/>
<text text-anchor="middle" x="132" y="-457.3" font-family="Times,serif" font-size="14.00">用户行为产生的标签</text>
</g>
<!-- king_tag&#45;&gt;user_action_tag -->
<g id="edge2" class="edge"><title>king_tag&#45;&gt;user_action_tag</title>
<path fill="none" stroke="none" d="M132,-518.128C132,-515.435 132,-512.633 132,-509.781"/>
</g>
<!-- extracted_by_algorithm_tag -->
<g id="node3" class="node"><title>extracted_by_algorithm_tag</title>
<ellipse fill="firebrick" stroke="black" cx="132" cy="-389" rx="108" ry="18"/>
<text text-anchor="middle" x="132" y="-385.3" font-family="Times,serif" font-size="14.00">从内容里利用算法提取的标签</text>
</g>
<!-- user_action_tag&#45;&gt;extracted_by_algorithm_tag -->
<g id="edge3" class="edge"><title>user_action_tag&#45;&gt;extracted_by_algorithm_tag</title>
<path fill="none" stroke="none" d="M132,-442.697C132,-431.846 132,-417.917 132,-407.104"/>
</g>
<!-- cms_search_user_tag -->
<g id="node4" class="node"><title>cms_search_user_tag</title>
<ellipse fill="white" stroke="black" cx="132" cy="-306" rx="108" ry="18"/>
<text text-anchor="middle" x="132" y="-302.3" font-family="Times,serif" font-size="14.00">搜索用户</text>
</g>
<!-- extracted_by_algorithm_tag&#45;&gt;cms_search_user_tag -->
<g id="edge4" class="edge"><title>extracted_by_algorithm_tag&#45;&gt;cms_search_user_tag</title>
<path fill="none" stroke="none" d="M132,-370.822C132,-357.076 132,-337.893 132,-324.153"/>
</g>
<!-- cms_add_user_tag -->
<g id="node5" class="node"><title>cms_add_user_tag</title>
<ellipse fill="white" stroke="black" cx="132" cy="-234" rx="108" ry="18"/>
<text text-anchor="middle" x="132" y="-230.3" font-family="Times,serif" font-size="14.00">添加用户标签</text>
</g>
<!-- cms_search_user_tag&#45;&gt;cms_add_user_tag -->
<g id="edge5" class="edge"><title>cms_search_user_tag&#45;&gt;cms_add_user_tag</title>
<path fill="none" stroke="none" d="M132,-287.697C132,-276.846 132,-262.917 132,-252.104"/>
</g>
<!-- cms_remove_user_tag -->
<g id="node6" class="node"><title>cms_remove_user_tag</title>
<ellipse fill="white" stroke="black" cx="132" cy="-162" rx="108" ry="18"/>
<text text-anchor="middle" x="132" y="-158.3" font-family="Times,serif" font-size="14.00">删除用户标签</text>
</g>
<!-- cms_add_user_tag&#45;&gt;cms_remove_user_tag -->
<g id="edge6" class="edge"><title>cms_add_user_tag&#45;&gt;cms_remove_user_tag</title>
<path fill="none" stroke="none" d="M132,-215.697C132,-204.846 132,-190.917 132,-180.104"/>
</g>
<!-- cms_bulk_process_tag -->
<g id="node7" class="node"><title>cms_bulk_process_tag</title>
<ellipse fill="white" stroke="black" cx="132" cy="-90" rx="108" ry="18"/>
<text text-anchor="middle" x="132" y="-86.3" font-family="Times,serif" font-size="14.00">批处理用户标签</text>
</g>
<!-- cms_remove_user_tag&#45;&gt;cms_bulk_process_tag -->
<g id="edge7" class="edge"><title>cms_remove_user_tag&#45;&gt;cms_bulk_process_tag</title>
<path fill="none" stroke="none" d="M132,-143.697C132,-132.846 132,-118.917 132,-108.104"/>
</g>
<!-- end -->
<g id="node9" class="node"><title>end</title>
<polygon fill="none" stroke="black" points="150,-36 114,-36 114,-0 150,-0 150,-36"/>
<polyline fill="none" stroke="black" points="126,-36 114,-24 "/>
<polyline fill="none" stroke="black" points="114,-12 126,-0 "/>
<polyline fill="none" stroke="black" points="138,-0 150,-12 "/>
<polyline fill="none" stroke="black" points="150,-24 138,-36 "/>
<text text-anchor="middle" x="132" y="-14.3" font-family="Times,serif" font-size="14.00">end</text>
</g>
<!-- cms_bulk_process_tag&#45;&gt;end -->
<g id="edge8" class="edge"><title>cms_bulk_process_tag&#45;&gt;end</title>
<path fill="none" stroke="black" d="M132,-56.3647C132,-52.9335 132,-49.4718 132,-46.1124"/>
<polygon fill="black" stroke="black" points="135.5,-46.1043 132,-36.1043 128.5,-46.1044 135.5,-46.1043"/>
</g>
<!-- start -->
<g id="node8" class="node"><title>start</title>
<polygon fill="none" stroke="black" points="132,-668 95.8467,-650 132,-632 168.153,-650 132,-668"/>
<polyline fill="none" stroke="black" points="106.589,-655.348 106.589,-644.652 "/>
<polyline fill="none" stroke="black" points="121.258,-637.348 142.742,-637.348 "/>
<polyline fill="none" stroke="black" points="157.411,-644.652 157.411,-655.348 "/>
<polyline fill="none" stroke="black" points="142.742,-662.652 121.258,-662.652 "/>
<text text-anchor="middle" x="132" y="-646.3" font-family="Times,serif" font-size="14.00">start</text>
</g>
<!-- start&#45;&gt;king_tag -->
<g id="edge1" class="edge"><title>start&#45;&gt;king_tag</title>
<path fill="none" stroke="black" d="M132,-631.827C132,-631.668 132,-631.51 132,-631.35"/>
<polygon fill="black" stroke="black" points="135.5,-633.684 132,-623.684 128.5,-633.684 135.5,-633.684"/>
</g>
</g>
</svg>
