<?xml version="1.0" encoding="UTF-8" standalone="no"?>
<!DOCTYPE svg PUBLIC "-//W3C//DTD SVG 1.1//EN"
 "http://www.w3.org/Graphics/SVG/1.1/DTD/svg11.dtd">
<!-- Generated by graphviz version 2.30.1 (20150306.0020)
 -->
<!-- Title: G Pages: 1 -->
<svg width="640pt" height="539pt"
 viewBox="0.00 0.00 640.00 539.00" xmlns="http://www.w3.org/2000/svg" xmlns:xlink="http://www.w3.org/1999/xlink">
<g id="graph0" class="graph" transform="scale(1 1) rotate(0) translate(4 535)">
<title>G</title>
<polygon fill="white" stroke="white" points="-4,5 -4,-535 637,-535 637,5 -4,5"/>
<g id="clust1" class="cluster"><title>cluster_how_to_make_tag</title>
<defs>
<linearGradient id="l_0" gradientUnits="userSpaceOnUse" x1="8" y1="-263.5" x2="312" y2="-263.5" >
<stop offset="0" style="stop-color:#4575b4;stop-opacity:1.;"/>
<stop offset="1" style="stop-color:#74add1;stop-opacity:1.;"/>
</linearGradient>
</defs>
<polygon fill="url(#l_0)" stroke="black" points="8,-8 8,-519 312,-519 312,-8 8,-8"/>
<text text-anchor="middle" x="160" y="-503.8" font-family="Times,serif" font-size="14.00">给用户打标签</text>
</g>
<g id="clust2" class="cluster"><title>cluster_how_to_use_tag</title>
<defs>
<linearGradient id="l_1" gradientUnits="userSpaceOnUse" x1="320" y1="-302" x2="624" y2="-302" >
<stop offset="0" style="stop-color:#1a9850;stop-opacity:1.;"/>
<stop offset="1" style="stop-color:#66bd63;stop-opacity:1.;"/>
</linearGradient>
</defs>
<polygon fill="url(#l_1)" stroke="black" points="320,-81 320,-523 624,-523 624,-81 320,-81"/>
<text text-anchor="middle" x="472" y="-507.8" font-family="Times,serif" font-size="14.00">怎样使用标签</text>
</g>
<!-- user_tag -->
<g id="node1" class="node"><title>user_tag</title>
<polygon fill="orange" stroke="white" points="16,-411 16,-487 304,-487 304,-411 16,-411"/>
<text text-anchor="middle" x="69" y="-445.9" font-family="Migu 1M" font-size="12.00">用户标签</text>
<polyline fill="none" stroke="white" points="122,-411 122,-487 "/>
<text text-anchor="start" x="130" y="-473.4" font-family="Migu 1M" font-size="12.00">国王自己打的王国标签</text>
<polyline fill="none" stroke="white" points="122,-466 304,-466 "/>
<text text-anchor="start" x="130" y="-452.4" font-family="Migu 1M" font-size="12.00">用户自己选择的喜欢</text>
<text text-anchor="start" x="130" y="-439.4" font-family="Migu 1M" font-size="12.00">或不喜欢的标签</text>
<polyline fill="none" stroke="white" points="122,-432 304,-432 "/>
<text text-anchor="start" x="130" y="-418.4" font-family="Migu 1M" font-size="12.00">用户兴趣的属性</text>
</g>
<!-- m2m_tag -->
<g id="node2" class="node"><title>m2m_tag</title>
<polygon fill="orange" stroke="white" points="16,-306 16,-348 304,-348 304,-306 16,-306"/>
<text text-anchor="middle" x="59.5" y="-323.9" font-family="Migu 1M" font-size="12.00">米汤标签</text>
<polyline fill="none" stroke="white" points="103,-306 103,-348 "/>
<text text-anchor="start" x="111" y="-334.4" font-family="Migu 1M" font-size="12.00">用户行为产生的标签</text>
<polyline fill="none" stroke="white" points="103,-327 304,-327 "/>
<text text-anchor="start" x="111" y="-313.4" font-family="Migu 1M" font-size="12.00">从内容里利用算法提取的标签</text>
</g>
<!-- user_tag&#45;&gt;m2m_tag -->
<g id="edge1" class="edge"><title>user_tag&#45;&gt;m2m_tag</title>
<path fill="none" stroke="white" stroke-width="0" d="M160,-410.689C160,-390.049 160,-365.207 160,-348.174"/>
</g>
<!-- operator_tag -->
<g id="node3" class="node"><title>operator_tag</title>
<polygon fill="orange" stroke="white" points="16,-16.5 16,-247.5 304,-247.5 304,-16.5 16,-16.5"/>
<text text-anchor="middle" x="85" y="-135.4" font-family="Migu 1M" font-size="12.00">运营人员处理标签</text>
<text text-anchor="middle" x="85" y="-122.4" font-family="Migu 1M" font-size="12.00">CMS</text>
<polyline fill="none" stroke="white" points="154,-16.5 154,-247.5 "/>
<text text-anchor="start" x="162" y="-233.9" font-family="Migu 1M" font-size="12.00">优质标签确定和筛选</text>
<polyline fill="none" stroke="white" points="154,-226.5 304,-226.5 "/>
<text text-anchor="start" x="162" y="-212.9" font-family="Migu 1M" font-size="12.00">优质用户确定和筛选</text>
<polyline fill="none" stroke="white" points="154,-205.5 304,-205.5 "/>
<text text-anchor="start" x="162" y="-191.9" font-family="Migu 1M" font-size="12.00">优质王国确定和筛选</text>
<polyline fill="none" stroke="white" points="154,-184.5 304,-184.5 "/>
<text text-anchor="start" x="162" y="-170.9" font-family="Migu 1M" font-size="12.00">搜索王国</text>
<polyline fill="none" stroke="white" points="154,-163.5 304,-163.5 "/>
<text text-anchor="start" x="162" y="-149.9" font-family="Migu 1M" font-size="12.00">添加王国标签</text>
<polyline fill="none" stroke="white" points="154,-142.5 304,-142.5 "/>
<text text-anchor="start" x="162" y="-128.9" font-family="Migu 1M" font-size="12.00">删除王国标签</text>
<polyline fill="none" stroke="white" points="154,-121.5 304,-121.5 "/>
<text text-anchor="start" x="162" y="-107.9" font-family="Migu 1M" font-size="12.00">批处理王国标签</text>
<polyline fill="none" stroke="white" points="154,-100.5 304,-100.5 "/>
<text text-anchor="start" x="162" y="-86.9" font-family="Migu 1M" font-size="12.00">搜索用户</text>
<polyline fill="none" stroke="white" points="154,-79.5 304,-79.5 "/>
<text text-anchor="start" x="162" y="-65.9" font-family="Migu 1M" font-size="12.00">添加用户标签</text>
<polyline fill="none" stroke="white" points="154,-58.5 304,-58.5 "/>
<text text-anchor="start" x="162" y="-44.9" font-family="Migu 1M" font-size="12.00">删除用户标签</text>
<polyline fill="none" stroke="white" points="154,-37.5 304,-37.5 "/>
<text text-anchor="start" x="162" y="-23.9" font-family="Migu 1M" font-size="12.00">批处理用户标签</text>
</g>
<!-- m2m_tag&#45;&gt;operator_tag -->
<g id="edge2" class="edge"><title>m2m_tag&#45;&gt;operator_tag</title>
<path fill="none" stroke="white" stroke-width="0" d="M160,-305.71C160,-291.096 160,-270.08 160,-247.709"/>
</g>
<!-- preprocess_tag -->
<g id="node4" class="node"><title>preprocess_tag</title>
<polygon fill="chocolate" stroke="black" points="328,-407 328,-491 616,-491 616,-407 328,-407"/>
<text text-anchor="middle" x="392" y="-445.9" font-family="Migu 1M" font-size="12.00">预处理标签</text>
<polyline fill="none" stroke="black" points="456,-407 456,-491 "/>
<text text-anchor="start" x="464" y="-477.4" font-family="Migu 1M" font-size="12.00">高频词标签</text>
<polyline fill="none" stroke="black" points="456,-470 616,-470 "/>
<text text-anchor="start" x="464" y="-456.4" font-family="Migu 1M" font-size="12.00">停止词标签</text>
<polyline fill="none" stroke="black" points="456,-449 616,-449 "/>
<text text-anchor="start" x="464" y="-435.4" font-family="Migu 1M" font-size="12.00">同义词标签</text>
<polyline fill="none" stroke="black" points="456,-428 616,-428 "/>
<text text-anchor="start" x="464" y="-414.4" font-family="Migu 1M" font-size="12.00">观点标签 如:无聊</text>
</g>
<!-- evaluate_tag -->
<g id="node5" class="node"><title>evaluate_tag</title>
<polygon fill="chocolate" stroke="black" points="328,-285 328,-369 616,-369 616,-285 328,-285"/>
<text text-anchor="middle" x="400" y="-323.9" font-family="Migu 1M" font-size="12.00">量化标签</text>
<polyline fill="none" stroke="black" points="472,-285 472,-369 "/>
<text text-anchor="start" x="480" y="-355.4" font-family="Migu 1M" font-size="12.00">王国数</text>
<polyline fill="none" stroke="black" points="472,-348 616,-348 "/>
<text text-anchor="start" x="480" y="-334.4" font-family="Migu 1M" font-size="12.00">用户数</text>
<polyline fill="none" stroke="black" points="472,-327 616,-327 "/>
<text text-anchor="start" x="480" y="-313.4" font-family="Migu 1M" font-size="12.00">热度</text>
<polyline fill="none" stroke="black" points="472,-306 616,-306 "/>
<text text-anchor="start" x="480" y="-292.4" font-family="Migu 1M" font-size="12.00">其他维度</text>
</g>
<!-- preprocess_tag&#45;&gt;evaluate_tag -->
<g id="edge3" class="edge"><title>preprocess_tag&#45;&gt;evaluate_tag</title>
<path fill="none" stroke="white" stroke-width="0" d="M472,-406.703C472,-394.635 472,-381.446 472,-369.373"/>
</g>
<!-- group_tag -->
<g id="node6" class="node"><title>group_tag</title>
<polygon fill="chocolate" stroke="black" points="328,-90 328,-174 616,-174 616,-90 328,-90"/>
<text text-anchor="middle" x="403" y="-135.4" font-family="Migu 1M" font-size="12.00">标签分组</text>
<text text-anchor="middle" x="403" y="-122.4" font-family="Migu 1M" font-size="12.00">CMS</text>
<polyline fill="none" stroke="black" points="478,-90 478,-174 "/>
<text text-anchor="start" x="486" y="-160.4" font-family="Migu 1M" font-size="12.00">地域组</text>
<polyline fill="none" stroke="black" points="478,-153 616,-153 "/>
<text text-anchor="start" x="486" y="-139.4" font-family="Migu 1M" font-size="12.00">游戏组</text>
<polyline fill="none" stroke="black" points="478,-132 616,-132 "/>
<text text-anchor="start" x="486" y="-118.4" font-family="Migu 1M" font-size="12.00">时间组</text>
<polyline fill="none" stroke="black" points="478,-111 616,-111 "/>
<text text-anchor="start" x="486" y="-97.4" font-family="Migu 1M" font-size="12.00">其他组</text>
</g>
<!-- evaluate_tag&#45;&gt;group_tag -->
<g id="edge4" class="edge"><title>evaluate_tag&#45;&gt;group_tag</title>
<path fill="none" stroke="white" stroke-width="0" d="M472,-284.597C472,-251.922 472,-206.574 472,-174.003"/>
</g>
</g>
</svg>
