<?xml version="1.0" encoding="UTF-8" standalone="no"?>
<!DOCTYPE svg PUBLIC "-//W3C//DTD SVG 1.1//EN"
 "http://www.w3.org/Graphics/SVG/1.1/DTD/svg11.dtd">
<!-- Generated by graphviz version 2.30.1 (20150306.0020)
 -->
<!-- Title: G Pages: 1 -->
<svg width="491pt" height="294pt"
 viewBox="0.00 0.00 491.32 294.00" xmlns="http://www.w3.org/2000/svg" xmlns:xlink="http://www.w3.org/1999/xlink">
<g id="graph0" class="graph" transform="scale(1 1) rotate(0) translate(4 290)">
<title>G</title>
<polygon fill="white" stroke="white" points="-4,5 -4,-290 488.318,-290 488.318,5 -4,5"/>
<!-- nginx -->
<g id="node1" class="node"><title>nginx</title>
<polygon fill="orange" stroke="grey" points="162.318,-201 162.318,-285 308.318,-285 308.318,-201 162.318,-201"/>
<text text-anchor="middle" x="235.318" y="-271.4" font-family="Migu 1M" font-size="12.00">Nginx</text>
<polyline fill="none" stroke="grey" points="162.318,-264 308.318,-264 "/>
<text text-anchor="middle" x="188.818" y="-250.4" font-family="Migu 1M" font-size="12.00">外网IP</text>
<polyline fill="none" stroke="grey" points="162.318,-243 215.318,-243 "/>
<text text-anchor="middle" x="188.818" y="-229.4" font-family="Migu 1M" font-size="12.00">内网IP</text>
<polyline fill="none" stroke="grey" points="162.318,-222 215.318,-222 "/>
<text text-anchor="middle" x="188.818" y="-208.4" font-family="Migu 1M" font-size="12.00">Name</text>
<polyline fill="none" stroke="grey" points="215.318,-201 215.318,-264 "/>
<text text-anchor="start" x="223.318" y="-250.4" font-family="Migu 1M" font-size="12.00">114.55.87.118</text>
<polyline fill="none" stroke="grey" points="215.318,-243 308.318,-243 "/>
<text text-anchor="start" x="223.318" y="-229.4" font-family="Migu 1M" font-size="12.00">10.24.155.169</text>
<polyline fill="none" stroke="grey" points="215.318,-222 308.318,-222 "/>
<text text-anchor="start" x="223.318" y="-208.4" font-family="Migu 1M" font-size="12.00">lb</text>
</g>
<!-- tomcat1 -->
<g id="node2" class="node"><title>tomcat1</title>
<polygon fill="orange" stroke="grey" points="4.31761,-100.5 4.31761,-163.5 146.318,-163.5 146.318,-100.5 4.31761,-100.5"/>
<text text-anchor="middle" x="75.3176" y="-149.9" font-family="Migu 1M" font-size="12.00">Tomcat#1</text>
<polyline fill="none" stroke="grey" points="4.31761,-142.5 146.318,-142.5 "/>
<text text-anchor="middle" x="28.8176" y="-128.9" font-family="Migu 1M" font-size="12.00">IP</text>
<polyline fill="none" stroke="grey" points="4.31761,-121.5 53.3176,-121.5 "/>
<text text-anchor="middle" x="28.8176" y="-107.9" font-family="Migu 1M" font-size="12.00">Name</text>
<polyline fill="none" stroke="grey" points="53.3176,-100.5 53.3176,-142.5 "/>
<text text-anchor="start" x="61.3176" y="-128.9" font-family="Migu 1M" font-size="12.00">10.24.153.152</text>
<polyline fill="none" stroke="grey" points="53.3176,-121.5 146.318,-121.5 "/>
<text text-anchor="start" x="61.3176" y="-107.9" font-family="Migu 1M" font-size="12.00">jetty&#45;1</text>
</g>
<!-- nginx&#45;&gt;tomcat1 -->
<g id="edge1" class="edge"><title>nginx&#45;&gt;tomcat1</title>
<path fill="none" stroke="black" d="M174.828,-200.792C156.776,-188.493 137.311,-175.233 120.426,-163.73"/>
</g>
<!-- tomcat2 -->
<g id="node3" class="node"><title>tomcat2</title>
<polygon fill="orange" stroke="grey" points="164.318,-100.5 164.318,-163.5 306.318,-163.5 306.318,-100.5 164.318,-100.5"/>
<text text-anchor="middle" x="235.318" y="-149.9" font-family="Migu 1M" font-size="12.00">Tomcat#2</text>
<polyline fill="none" stroke="grey" points="164.318,-142.5 306.318,-142.5 "/>
<text text-anchor="middle" x="188.818" y="-128.9" font-family="Migu 1M" font-size="12.00">IP</text>
<polyline fill="none" stroke="grey" points="164.318,-121.5 213.318,-121.5 "/>
<text text-anchor="middle" x="188.818" y="-107.9" font-family="Migu 1M" font-size="12.00">Name</text>
<polyline fill="none" stroke="grey" points="213.318,-100.5 213.318,-142.5 "/>
<text text-anchor="start" x="221.318" y="-128.9" font-family="Migu 1M" font-size="12.00">10.24.235.105</text>
<polyline fill="none" stroke="grey" points="213.318,-121.5 306.318,-121.5 "/>
<text text-anchor="start" x="221.318" y="-107.9" font-family="Migu 1M" font-size="12.00">jetty&#45;2</text>
</g>
<!-- nginx&#45;&gt;tomcat2 -->
<g id="edge2" class="edge"><title>nginx&#45;&gt;tomcat2</title>
<path fill="none" stroke="black" d="M235.318,-200.792C235.318,-188.493 235.318,-175.233 235.318,-163.73"/>
</g>
<!-- tomcat3 -->
<g id="node4" class="node"><title>tomcat3</title>
<polygon fill="orange" stroke="grey" points="324.318,-100.5 324.318,-163.5 466.318,-163.5 466.318,-100.5 324.318,-100.5"/>
<text text-anchor="middle" x="395.318" y="-149.9" font-family="Migu 1M" font-size="12.00">Tomcat#3</text>
<polyline fill="none" stroke="grey" points="324.318,-142.5 466.318,-142.5 "/>
<text text-anchor="middle" x="348.818" y="-128.9" font-family="Migu 1M" font-size="12.00">IP</text>
<polyline fill="none" stroke="grey" points="324.318,-121.5 373.318,-121.5 "/>
<text text-anchor="middle" x="348.818" y="-107.9" font-family="Migu 1M" font-size="12.00">Name</text>
<polyline fill="none" stroke="grey" points="373.318,-100.5 373.318,-142.5 "/>
<text text-anchor="start" x="381.318" y="-128.9" font-family="Migu 1M" font-size="12.00">10.24.155.129</text>
<polyline fill="none" stroke="grey" points="373.318,-121.5 466.318,-121.5 "/>
<text text-anchor="start" x="381.318" y="-107.9" font-family="Migu 1M" font-size="12.00">jetty&#45;3</text>
</g>
<!-- nginx&#45;&gt;tomcat3 -->
<g id="edge3" class="edge"><title>nginx&#45;&gt;tomcat3</title>
<path fill="none" stroke="black" d="M295.807,-200.792C313.86,-188.493 333.324,-175.233 350.21,-163.73"/>
</g>
<!-- db -->
<g id="node5" class="node"><title>db</title>
<polygon fill="orange" stroke="grey" points="167.318,-0.5 167.318,-63.5 483.318,-63.5 483.318,-0.5 167.318,-0.5"/>
<text text-anchor="middle" x="325.318" y="-49.9" font-family="Migu 1M" font-size="12.00">RDS</text>
<polyline fill="none" stroke="grey" points="167.318,-42.5 483.318,-42.5 "/>
<text text-anchor="middle" x="191.818" y="-28.9" font-family="Migu 1M" font-size="12.00">IP</text>
<polyline fill="none" stroke="grey" points="167.318,-21.5 216.318,-21.5 "/>
<text text-anchor="middle" x="191.818" y="-7.9" font-family="Migu 1M" font-size="12.00">Name</text>
<polyline fill="none" stroke="grey" points="216.318,-0.5 216.318,-42.5 "/>
<text text-anchor="start" x="224.318" y="-28.9" font-family="Migu 1M" font-size="12.00">10.50.217.80</text>
<polyline fill="none" stroke="grey" points="216.318,-21.5 483.318,-21.5 "/>
<text text-anchor="start" x="224.318" y="-7.9" font-family="Migu 1M" font-size="12.00">rm&#45;bp1167i0gk5j947da.mysql.rds.aliyuncs.com</text>
</g>
<!-- tomcat1&#45;&gt;db -->
<g id="edge4" class="edge"><title>tomcat1:s&#45;&gt;db:n</title>
<path fill="none" stroke="blue" d="M75.3176,-100C75.3176,-43.8714 325.318,-120.129 325.318,-64"/>
</g>
<!-- redis -->
<g id="node6" class="node"><title>redis</title>
<polygon fill="orange" stroke="grey" points="-0.182392,-0.5 -0.182392,-63.5 148.818,-63.5 148.818,-0.5 -0.182392,-0.5"/>
<text text-anchor="middle" x="74.3176" y="-49.9" font-family="Migu 1M" font-size="12.00">Redis</text>
<polyline fill="none" stroke="grey" points="-0.182392,-42.5 148.818,-42.5 "/>
<text text-anchor="middle" x="24.3176" y="-28.9" font-family="Migu 1M" font-size="12.00">IP</text>
<polyline fill="none" stroke="grey" points="-0.182392,-21.5 48.8176,-21.5 "/>
<text text-anchor="middle" x="24.3176" y="-7.9" font-family="Migu 1M" font-size="12.00">Name</text>
<polyline fill="none" stroke="grey" points="48.8176,-0.5 48.8176,-42.5 "/>
<text text-anchor="start" x="56.8176" y="-28.9" font-family="Migu 1M" font-size="12.00">10.251.246.227</text>
<polyline fill="none" stroke="grey" points="48.8176,-21.5 148.818,-21.5 "/>
<text text-anchor="start" x="56.8176" y="-7.9" font-family="Migu 1M" font-size="12.00">redis</text>
</g>
<!-- tomcat1&#45;&gt;redis -->
<g id="edge7" class="edge"><title>tomcat1:sw&#45;&gt;redis:n</title>
<path fill="none" stroke="red" d="M4.31761,-100C-20.42,-75.2624 74.3176,-98.9843 74.3176,-64"/>
</g>
<!-- tomcat2&#45;&gt;db -->
<g id="edge5" class="edge"><title>tomcat2:s&#45;&gt;db:n</title>
<path fill="none" stroke="blue" d="M235.318,-100C235.318,-56.9187 325.318,-107.081 325.318,-64"/>
</g>
<!-- tomcat2&#45;&gt;redis -->
<g id="edge8" class="edge"><title>tomcat2:sw&#45;&gt;redis:n</title>
<path fill="none" stroke="red" d="M164.318,-100C133.855,-69.5369 74.3176,-107.081 74.3176,-64"/>
</g>
<!-- tomcat3&#45;&gt;db -->
<g id="edge6" class="edge"><title>tomcat3:s&#45;&gt;db:n</title>
<path fill="none" stroke="blue" d="M395.318,-100C395.318,-65.0157 325.318,-98.9843 325.318,-64"/>
</g>
<!-- tomcat3&#45;&gt;redis -->
<g id="edge9" class="edge"><title>tomcat3:sw&#45;&gt;redis:n</title>
<path fill="none" stroke="red" d="M324.318,-100C284.629,-60.3111 74.3176,-120.129 74.3176,-64"/>
</g>
</g>
</svg>
